<mxfile host="app.diagrams.net" modified="2021-08-11T15:26:11.014Z" agent="5.0 (X11; Linux x86_64) AppleWebKit/537.36 (KHTML, like Gecko) Chrome/92.0.4515.131 Safari/537.36" etag="125Pmg5TkmSE-aMr9GNa" version="14.9.6" type="github">
  <diagram id="FTrK58_dnfsZAVpMx4PE" name="Page-1">
    <mxGraphModel dx="1350" dy="769" grid="1" gridSize="10" guides="1" tooltips="1" connect="1" arrows="1" fold="1" page="1" pageScale="1" pageWidth="850" pageHeight="1100" math="0" shadow="0">
      <root>
        <mxCell id="0" />
        <mxCell id="1" parent="0" />
        <mxCell id="aEkkk-6x4j_KzVjlJegc-13" value="" style="rounded=1;whiteSpace=wrap;html=1;" vertex="1" parent="1">
          <mxGeometry x="40" y="250" width="760" height="790" as="geometry" />
        </mxCell>
        <mxCell id="aEkkk-6x4j_KzVjlJegc-1" value="" style="dashed=0;outlineConnect=0;html=1;align=center;labelPosition=center;verticalLabelPosition=bottom;verticalAlign=top;shape=mxgraph.webicons.apache;gradientColor=#DFDEDE" vertex="1" parent="1">
          <mxGeometry x="400" y="260" width="82.4" height="80" as="geometry" />
        </mxCell>
        <mxCell id="aEkkk-6x4j_KzVjlJegc-2" value="" style="aspect=fixed;perimeter=ellipsePerimeter;html=1;align=center;shadow=0;dashed=0;spacingTop=3;image;image=img/lib/active_directory/internet_cloud.svg;" vertex="1" parent="1">
          <mxGeometry x="377.71" y="50" width="126.99" height="80" as="geometry" />
        </mxCell>
        <mxCell id="aEkkk-6x4j_KzVjlJegc-3" value="" style="shape=image;html=1;verticalAlign=top;verticalLabelPosition=bottom;labelBackgroundColor=#ffffff;imageAspect=0;aspect=fixed;image=https://cdn4.iconfinder.com/data/icons/logos-and-brands/512/256_Php_logo-128.png" vertex="1" parent="1">
          <mxGeometry x="482.4" y="750" width="128" height="128" as="geometry" />
        </mxCell>
        <mxCell id="aEkkk-6x4j_KzVjlJegc-4" value="" style="shape=image;html=1;verticalAlign=top;verticalLabelPosition=bottom;labelBackgroundColor=#ffffff;imageAspect=0;aspect=fixed;image=https://cdn3.iconfinder.com/data/icons/freeapplication/png/24x24/Database.png" vertex="1" parent="1">
          <mxGeometry x="150" y="750" width="64" height="64" as="geometry" />
        </mxCell>
        <mxCell id="aEkkk-6x4j_KzVjlJegc-5" value="" style="shape=image;html=1;verticalAlign=top;verticalLabelPosition=bottom;labelBackgroundColor=#ffffff;imageAspect=0;aspect=fixed;image=https://cdn4.iconfinder.com/data/icons/logos-brands-5/24/mysql-128.png" vertex="1" parent="1">
          <mxGeometry x="680" y="760" width="78" height="78" as="geometry" />
        </mxCell>
        <mxCell id="aEkkk-6x4j_KzVjlJegc-6" value="&lt;font style=&quot;font-size: 24px&quot;&gt;Internet&lt;/font&gt;" style="text;html=1;strokeColor=none;fillColor=none;align=center;verticalAlign=middle;whiteSpace=wrap;rounded=0;" vertex="1" parent="1">
          <mxGeometry x="360" width="150" height="50" as="geometry" />
        </mxCell>
        <mxCell id="aEkkk-6x4j_KzVjlJegc-8" value="" style="shape=flexArrow;endArrow=classic;startArrow=classic;html=1;" edge="1" parent="1">
          <mxGeometry width="100" height="100" relative="1" as="geometry">
            <mxPoint x="441" y="240" as="sourcePoint" />
            <mxPoint x="440.7" y="140" as="targetPoint" />
          </mxGeometry>
        </mxCell>
        <mxCell id="aEkkk-6x4j_KzVjlJegc-11" value="&lt;font style=&quot;font-size: 14px&quot;&gt;Apache Web Server&lt;/font&gt;" style="text;html=1;strokeColor=none;fillColor=none;align=center;verticalAlign=middle;whiteSpace=wrap;rounded=0;" vertex="1" parent="1">
          <mxGeometry x="366.2" y="340" width="150" height="50" as="geometry" />
        </mxCell>
        <mxCell id="aEkkk-6x4j_KzVjlJegc-12" value="" style="image;html=1;image=img/lib/clip_art/networking/Cloud_Server_128x128.png" vertex="1" parent="1">
          <mxGeometry x="100" y="210" width="80" height="80" as="geometry" />
        </mxCell>
        <mxCell id="aEkkk-6x4j_KzVjlJegc-14" value="&lt;font style=&quot;font-size: 12px&quot;&gt;Port 80 and 443&lt;/font&gt;" style="text;html=1;strokeColor=none;fillColor=none;align=center;verticalAlign=middle;whiteSpace=wrap;rounded=0;" vertex="1" parent="1">
          <mxGeometry x="600" y="70" width="150" height="50" as="geometry" />
        </mxCell>
      </root>
    </mxGraphModel>
  </diagram>
</mxfile>
